<svg id="Layer_1" data-name="Layer 1" xmlns="http://www.w3.org/2000/svg" viewBox="0 0 200 200"><defs><style>.cls-1,.cls-3{fill:#448bff;}.cls-1{stroke:#448bff;stroke-miterlimit:10;stroke-width:5.37px;}.cls-2{fill:#fff;}</style></defs><title>logo01</title><path class="cls-1" d="M99.7,4.23A95.67,95.67,0,0,0,4.14,95.48a95.43,95.43,0,0,1,51.55,27.86,95.8,95.8,0,0,1,88,0,95.37,95.37,0,0,1,51.54-27.86A95.67,95.67,0,0,0,99.7,4.23Zm0,80a20.55,20.55,0,1,1,20.55-20.55A20.55,20.55,0,0,1,99.7,84.19Z"/><path class="cls-2" d="M195.36,99.9a95.68,95.68,0,0,1-62.85,89.89,33.79,33.79,0,0,0-65.62,0A95.68,95.68,0,0,1,4,99.9c0-1.48,0-3,.1-4.42a95.43,95.43,0,0,1,51.55,27.86,95.8,95.8,0,0,1,88,0,95.37,95.37,0,0,1,51.54-27.86C195.33,97,195.36,98.42,195.36,99.9Z"/><path class="cls-2" d="M68.79,193.33l-2.82-1A98.39,98.39,0,0,1,1.35,99.9c0-1.56,0-3.09.11-4.55l.14-3.07,3,.56a97.59,97.59,0,0,1,51.6,27.22,98.51,98.51,0,0,1,86.94,0,97.52,97.52,0,0,1,51.6-27.22l3-.56.15,3.07c.07,1.47.1,3,.1,4.55a98.4,98.4,0,0,1-64.61,92.41l-2.82,1-.71-2.91a31.1,31.1,0,0,0-60.4,0Zm30.91-32a36.5,36.5,0,0,1,34.57,24.86A93,93,0,0,0,192.68,99.9c0-.39,0-.78,0-1.16a92.25,92.25,0,0,0-47,26.46l-1.39,1.45-1.78-.93a92,92,0,0,0-42.78-10.4,93.09,93.09,0,0,0-42.78,10.4l-1.78.93-1.39-1.45a92.28,92.28,0,0,0-47-26.46c0,.38,0,.77,0,1.16a93,93,0,0,0,58.4,86.34A36.49,36.49,0,0,1,99.7,161.38Z"/><path class="cls-1" d="M119.07,170.17a33.79,33.79,0,0,0-52.18,19.61A94.05,94.05,0,0,0,82.19,194a96.08,96.08,0,0,0,35,0,94.21,94.21,0,0,0,15.29-4.17A33.76,33.76,0,0,0,119.07,170.17Zm-31,16a4.23,4.23,0,1,1,4.23-4.23A4.22,4.22,0,0,1,88.11,186.14Zm23.18-.61a4.23,4.23,0,1,1,4.23-4.22A4.22,4.22,0,0,1,111.29,185.53Z"/><path class="cls-2" d="M92.34,181.91a4.23,4.23,0,1,1-4.23-4.23A4.23,4.23,0,0,1,92.34,181.91Z"/><path class="cls-2" d="M88.11,188.82A6.91,6.91,0,1,1,95,181.91,6.91,6.91,0,0,1,88.11,188.82Zm0-8.45a1.54,1.54,0,1,0,1.55,1.54A1.54,1.54,0,0,0,88.11,180.37Z"/><path class="cls-2" d="M115.52,181.31a4.23,4.23,0,1,1-4.23-4.23A4.23,4.23,0,0,1,115.52,181.31Z"/><path class="cls-2" d="M111.29,188.21a6.91,6.91,0,1,1,6.91-6.9A6.92,6.92,0,0,1,111.29,188.21Zm0-8.45a1.55,1.55,0,1,0,1.54,1.55A1.54,1.54,0,0,0,111.29,179.76Z"/><path class="cls-2" d="M120.25,63.64A20.55,20.55,0,1,1,99.7,43.09,20.55,20.55,0,0,1,120.25,63.64Z"/><path class="cls-2" d="M99.7,86.87a23.23,23.23,0,1,1,23.24-23.23A23.26,23.26,0,0,1,99.7,86.87Zm0-41.09a17.87,17.87,0,1,0,17.87,17.86A17.89,17.89,0,0,0,99.7,45.78Z"/><path class="cls-3" d="M107.05,72.3a9.72,9.72,0,0,1-4.49,2.52v3.46H97.19V75a8.9,8.9,0,0,1-4.86-2.24,6.05,6.05,0,0,1-1.75-4.34h6.81c.11,1.57.9,2.35,2.35,2.35s2.27-.64,2.27-1.94c0-.89-.58-1.61-1.74-2.18a16.19,16.19,0,0,0-1.79-.71l-2.06-.69a17.42,17.42,0,0,1-2.06-.86,8.07,8.07,0,0,1-1.79-1.19A5.32,5.32,0,0,1,90.82,59q0-5.22,6.37-6.67V49h5.37v3.34c3.74.72,5.59,2.75,5.54,6.11v.16h-6.16a2,2,0,0,0-2.2-2.08c-1.44,0-2.16.62-2.16,1.85,0,.87.67,1.62,2,2.24a13.32,13.32,0,0,0,1.76.66l1.62.5a10.06,10.06,0,0,1,4.18,2.4,5.41,5.41,0,0,1,1.67,3.93A5.83,5.83,0,0,1,107.05,72.3Z"/></svg>