<svg id="Layer_1" data-name="Layer 1" xmlns="http://www.w3.org/2000/svg" viewBox="0 0 200 200"><defs><style>.cls-1,.cls-3{fill:#af0000;}.cls-1{stroke:#af0000;stroke-miterlimit:10;stroke-width:5.29px;}.cls-2{fill:#fff;}</style></defs><title>logo02</title><path class="cls-1" d="M100.36,3.69a94.32,94.32,0,0,0-94.21,90A94,94,0,0,1,57,121.11a94.5,94.5,0,0,1,86.78,0,94,94,0,0,1,50.82-27.46A94.31,94.31,0,0,0,100.36,3.69Zm0,78.83a20.26,20.26,0,1,1,20.26-20.26A20.26,20.26,0,0,1,100.36,82.52Z"/><path class="cls-2" d="M194.67,98a94.34,94.34,0,0,1-62,88.61,33.31,33.31,0,0,0-64.68,0A94.34,94.34,0,0,1,6.05,98c0-1.46,0-2.91.1-4.35A94,94,0,0,1,57,121.11a94.5,94.5,0,0,1,86.78,0,94,94,0,0,1,50.82-27.46C194.63,95.09,194.67,96.54,194.67,98Z"/><path class="cls-3" d="M69.88,190.11l-2.77-1A97,97,0,0,1,3.41,98c0-1.53,0-3,.1-4.48l.15-3,3,.55a96.14,96.14,0,0,1,50.87,26.83,97.09,97.09,0,0,1,85.71,0,96.11,96.11,0,0,1,50.86-26.83l3-.55.15,3c.07,1.45.1,3,.1,4.48a97,97,0,0,1-63.7,91.1l-2.78,1-.7-2.87a30.66,30.66,0,0,0-59.54,0Zm30.48-31.5a36,36,0,0,1,34.08,24.51A91.71,91.71,0,0,0,192,98c0-.38,0-.76,0-1.14a91,91,0,0,0-46.35,26.08l-1.37,1.43-1.76-.91a90.53,90.53,0,0,0-42.17-10.26,91.85,91.85,0,0,0-42.17,10.26l-1.76.91-1.37-1.43A91,91,0,0,0,8.71,96.86c0,.38,0,.76,0,1.14a91.71,91.71,0,0,0,57.58,85.12,36,36,0,0,1,34.08-24.51Z"/><path class="cls-1" d="M119.46,167.28A33.3,33.3,0,0,0,68,186.61a94.6,94.6,0,0,0,64.68,0A33.21,33.21,0,0,0,119.46,167.28ZM88.94,183a4.17,4.17,0,1,1,4.16-4.16A4.17,4.17,0,0,1,88.94,183Zm22.85-.59a4.17,4.17,0,1,1,4.16-4.17A4.17,4.17,0,0,1,111.79,182.42Z"/><path class="cls-2" d="M93.1,178.85a4.17,4.17,0,1,1-4.16-4.17A4.16,4.16,0,0,1,93.1,178.85Z"/><path class="cls-2" d="M88.94,185.66a6.81,6.81,0,1,1,6.81-6.81A6.81,6.81,0,0,1,88.94,185.66Zm0-8.33a1.52,1.52,0,1,0,1.52,1.52A1.52,1.52,0,0,0,88.94,177.33Z"/><path class="cls-2" d="M116,178.25a4.17,4.17,0,1,1-4.16-4.16A4.16,4.16,0,0,1,116,178.25Z"/><path class="cls-2" d="M111.79,185.06a6.81,6.81,0,1,1,6.81-6.81A6.81,6.81,0,0,1,111.79,185.06Zm0-8.33a1.52,1.52,0,1,0,1.52,1.52A1.52,1.52,0,0,0,111.79,176.73Z"/><path class="cls-2" d="M120.62,62.26A20.26,20.26,0,1,1,100.36,42,20.26,20.26,0,0,1,120.62,62.26Z"/><path class="cls-2" d="M100.36,85.16a22.9,22.9,0,1,1,22.91-22.9A22.92,22.92,0,0,1,100.36,85.16Zm0-40.51A17.61,17.61,0,1,0,118,62.26,17.63,17.63,0,0,0,100.36,44.65Z"/><path class="cls-3" d="M107.61,70.8a9.68,9.68,0,0,1-4.43,2.48v3.41H97.89V73.4a8.68,8.68,0,0,1-4.79-2.2,5.93,5.93,0,0,1-1.72-4.28h6.7c.12,1.55.89,2.32,2.32,2.32s2.24-.64,2.24-1.92c0-.87-.57-1.58-1.72-2.15a14.1,14.1,0,0,0-1.76-.69l-2-.69a16.74,16.74,0,0,1-2-.84,8.4,8.4,0,0,1-1.76-1.17,5.27,5.27,0,0,1-1.72-4.09q0-5.14,6.28-6.57V47.83h5.29v3.29c3.69.71,5.51,2.71,5.46,6v.16h-6.07a2,2,0,0,0-2.17-2c-1.42,0-2.13.61-2.13,1.82,0,.86.66,1.6,2,2.21a15.3,15.3,0,0,0,1.74.65l1.59.5a9.88,9.88,0,0,1,4.12,2.36,5.32,5.32,0,0,1,1.65,3.88A5.76,5.76,0,0,1,107.61,70.8Z"/></svg>